<?xml version="1.0" encoding="UTF-8"?> <svg xmlns="http://www.w3.org/2000/svg" xmlns:xlink="http://www.w3.org/1999/xlink" viewBox="0 0 350 351.2"><defs><style>.a{fill:none;}.b{fill:#012a71;opacity:0.9;isolation:isolate;}.c{fill:#f5a800;}.d{fill:#fff;}.e{clip-path:url(#a);}.f{fill:url(#b);}.g,.i{fill:#27aae1;}.g{fill-rule:evenodd;}.h{clip-path:url(#c);}.j{clip-path:url(#d);}.k{fill:url(#e);}.l{clip-path:url(#f);}.m{clip-path:url(#g);}.n{fill:url(#h);}.o{clip-path:url(#i);}.p{fill:url(#j);}</style><clipPath id="a"><path class="a" d="M162,84.8a3.8636,3.8636,0,0,0-5.4,0h0a3.8636,3.8636,0,0,0,0,5.4h0a3.6927,3.6927,0,0,0,2.7,1.1,3.8637,3.8637,0,0,0,2.7-1.1,3.8636,3.8636,0,0,0,0-5.4ZM189.4,95a3.6927,3.6927,0,0,0-2.7,1.1h0a3.8636,3.8636,0,0,0,0,5.4h0a3.6927,3.6927,0,0,0,2.7,1.1,3.8637,3.8637,0,0,0,2.7-1.1,3.6927,3.6927,0,0,0,1.1-2.7,3.8637,3.8637,0,0,0-1.1-2.7h0A3.8637,3.8637,0,0,0,189.4,95Zm-40.3,12.7a3.8636,3.8636,0,0,0-5.4,0h0a3.8636,3.8636,0,0,0,0,5.4h0a3.6927,3.6927,0,0,0,2.7,1.1,3.8637,3.8637,0,0,0,2.7-1.1,3.6927,3.6927,0,0,0,1.1-2.7,3.8637,3.8637,0,0,0-1.1-2.7Zm52.9,13a3.6927,3.6927,0,0,0-2.7,1.1h0a3.8636,3.8636,0,0,0,0,5.4h0a3.6927,3.6927,0,0,0,2.7,1.1,3.8637,3.8637,0,0,0,2.7-1.1,3.6927,3.6927,0,0,0,1.1-2.7,3.8637,3.8637,0,0,0-1.1-2.7h0A3.8637,3.8637,0,0,0,202,120.7Zm-27.9-3.3H176a3.2294,3.2294,0,0,0,1.7-1,3.6927,3.6927,0,0,0,1.1-2.7,3.8637,3.8637,0,0,0-1.1-2.7h0a3.8636,3.8636,0,0,0-5.4,0h0a3.8636,3.8636,0,0,0,0,5.4h0A3.2469,3.2469,0,0,0,174.1,117.4Zm3.7,39c2.1,0,4.3.1,6.4.3v-5.4l1.4-.8,13.6-7.8V132a7.499,7.499,0,0,1-2.8-1.8h0a7.9674,7.9674,0,0,1,0-11.2h0a7.9674,7.9674,0,0,1,11.2,0h0a7.9674,7.9674,0,0,1,0,11.2,8.3891,8.3891,0,0,1-2.8,1.8v13.8l-1.4.8-13.6,7.8v2.7c22.2,2.5,41.8,10.4,56,21.7C226,170.7,201.5,166,175,166s-50.9,4.8-70.8,12.8c13.9-11.1,32.9-18.8,54.4-21.5V142.6L145,134.8l-1.4-.8V117.9a7.499,7.499,0,0,1-2.8-1.8h0a7.9674,7.9674,0,0,1,0-11.2h0a7.9674,7.9674,0,0,1,11.2,0h0a7.9674,7.9674,0,0,1,0,11.2,8.3891,8.3891,0,0,1-2.8,1.8v12.9l13.6,7.8,1.4.8v17.3c2.6-.2,5.3-.3,8-.4V136.1L158,128l-1.4-.8V95a7.499,7.499,0,0,1-2.8-1.8h0a7.9674,7.9674,0,0,1,0-11.2h0A7.9674,7.9674,0,0,1,165,82h0a7.9674,7.9674,0,0,1,0,11.2,8.3891,8.3891,0,0,1-2.8,1.8v29l10.1,5.8v-8.6a7.499,7.499,0,0,1-2.8-1.8h0a7.9674,7.9674,0,0,1,0-11.2h0a7.9674,7.9674,0,0,1,11.2,0h0a7.9674,7.9674,0,0,1,0,11.2,8.3891,8.3891,0,0,1-2.8,1.8v19.1l8.8-5.1v-29a7.499,7.499,0,0,1-2.8-1.8h0a7.9674,7.9674,0,0,1,0-11.2h0a7.9674,7.9674,0,0,1,11.2,0h0a7.9674,7.9674,0,0,1,0,11.2,8.3891,8.3891,0,0,1-2.8,1.8v32.2l-1.4.8-13,7.5v9.7Z"></path></clipPath><linearGradient id="b" x1="-302.8919" y1="-301.6175" x2="-302.2324" y2="-301.6175" gradientTransform="matrix(0, -112.0972, -161.0271, 0, -48393.6477, -33786.8828)" gradientUnits="userSpaceOnUse"><stop offset="0" stop-color="#df5c24"></stop><stop offset="1" stop-color="#f6d91b"></stop></linearGradient><clipPath id="c"><path class="a" d="M115.3,78.3l-4,6.9-4,6.9c3.6,3,9.4,6.5,8.5,11.2l-.7,2.5c-.2.9-.5,1.8-.7,2.7-1.5,4.6-8.3,4.7-12.9,5.5v16c4.6.8,11.4.9,12.9,5.5l.6,2.6.8,2.6c.9,4.7-4.9,8.2-8.5,11.2l4,6.9,3.9,6.8a126.6318,126.6318,0,0,1,24.2-9.3,49.4,49.4,0,1,1,71,0,114.6452,114.6452,0,0,1,24.2,9.3l3.9-6.8,4-6.9c-3.6-3-9.5-6.5-8.4-11.3.3-.9.5-1.8.8-2.7l.6-2.4c1.5-4.6,8.3-4.7,12.9-5.5V114c-4.6-.8-11.4-.9-12.9-5.5-.2-.9-.4-1.8-.7-2.8h0l-.7-2.5c-.8-4.7,4.9-8.1,8.5-11.1l-4-6.9-4-6.9c-4.4,1.6-10.3,4.9-13.9,1.7l-1.6-1.7c-.7-.7-1.5-1.4-2.2-2.1-3.1-3.6.1-9.5,1.7-13.9l-6.9-4-6.9-4c-3.1,3.7-6.7,9.7-11.6,8.4l-1.8-.5-2.6-.6c-5-1.3-5.1-8.3-5.9-13.1h-16c-.8,4.6-.9,11.4-5.5,12.9l-2.5.6-2.6.8c-4.8,1-8.3-4.8-11.3-8.4l-6.9,4-6.9,4c1.6,4.5,5.1,10.6,1.4,14.2L131,78.1l-1.6,1.7c-3.4,3.5-9.6.1-14.1-1.5"></path></clipPath><clipPath id="d"><path class="a" d="M175,64.5a57.4283,57.4283,0,0,1,44,94.3c-2.7-.9-5.5-1.8-8.4-2.5a49.4,49.4,0,1,0-71,0c-2.9.8-5.7,1.6-8.4,2.5A57.4287,57.4287,0,0,1,175,64.5"></path></clipPath><linearGradient id="e" x1="-308.6465" y1="-305.7862" x2="-307.8265" y2="-305.7862" gradientTransform="matrix(0, 119.8233, 133.3236, 0, 40943.515, 37051.7109)" gradientUnits="userSpaceOnUse"><stop offset="0" stop-color="#005a87"></stop><stop offset="1" stop-color="#3be6ff"></stop></linearGradient><clipPath id="f"><path class="a" d="M130.1,159.1a58.3,58.3,0,1,1,89.8,0,14.58,14.58,0,0,1-1.9-.7,56.4,56.4,0,1,0-86,0,14.58,14.58,0,0,1-1.9.7"></path></clipPath><clipPath id="g"><path class="a" d="M245.8,178.9c-74.2-39.3-141.5,0-141.5,0,42-17.1,99.4-17.1,141.5,0"></path></clipPath><linearGradient id="h" x1="-298.0344" y1="-301.6681" x2="-297.5531" y2="-301.6681" gradientTransform="matrix(0, -43.2091, -163.7779, 0, -49231.61, -12707.9844)" xlink:href="#b"></linearGradient><clipPath id="i"><path class="a" d="M245.8,178.9c-20.9-11-45.8-16.9-70.8-17-24.9.2-49.9,6.1-70.8,17a153.12,153.12,0,0,1,70.8-18,151.9073,151.9073,0,0,1,70.8,18"></path></clipPath><linearGradient id="j" x1="-307.619" y1="-294.2399" x2="-307.0842" y2="-294.2399" gradientTransform="matrix(163.5035, 0, 0, -37.0466, 50430.1094, -10730.6891)" gradientUnits="userSpaceOnUse"><stop offset="0" stop-color="#df5c24"></stop><stop offset="0.5" stop-color="#f6d91b"></stop><stop offset="1" stop-color="#df5c24"></stop></linearGradient></defs><circle class="b" cx="175" cy="175.6" r="168.8"></circle><path class="c" d="M87.9,207.4l-7-17.9h3.6L89.9,204l5.4-14.5h3.6l-7,17.9Z"></path><path class="c" d="M99.7,207.4V189.5h3.1v17.9Z"></path><path class="c" d="M104.4,204.9l1.7-2.4a7.8161,7.8161,0,0,0,5.7,2.5c2.6,0,3.6-1.3,3.6-2.4,0-3.8-10.4-1.4-10.4-8,0-3,2.6-5.2,6.5-5.2a9.3828,9.3828,0,0,1,6.7,2.5l-1.8,2.3a7.24,7.24,0,0,0-5.2-2c-1.9,0-3,.9-3,2.2,0,3.3,10.4,1.3,10.4,7.9,0,3-2.1,5.5-6.9,5.5A10.0426,10.0426,0,0,1,104.4,204.9Z"></path><path class="c" d="M124.4,207.4V192.3H119v-2.8h14v2.8h-5.4v15.1Z"></path><path class="c" d="M134.4,207.4V189.5h12.3v2.8h-9.1v4.6h8.9v2.8h-8.9v5h9.1v2.8H134.4Z"></path><path class="c" d="M160.8,207.4l-5-7-5,7H147l6.7-9.2-6.3-8.7h3.8l4.6,6.6,4.6-6.6h3.8l-6.3,8.7,6.7,9.2Z"></path><path class="c" d="M176.4,207.4l-7-17.9H173l5.4,14.5,5.4-14.5h3.6l-7,17.9Z"></path><path class="c" d="M188.1,207.4V189.5h3.1v17.9Z"></path><path class="c" d="M204.2,207.4l-4-6.7h-3.1v6.7H194V189.5h7.9c3.5,0,5.9,2.3,5.9,5.6a5.105,5.105,0,0,1-4.2,5.3l4.4,7Zm.3-12.3a2.8175,2.8175,0,0,0-3.1-2.8h-4.3V198h4.3A2.9517,2.9517,0,0,0,204.5,195.1Z"></path><path class="c" d="M213.7,207.4V192.3h-5.4v-2.8h14v2.8h-5.4v15.1Z"></path><path class="c" d="M223.8,200.3V189.5H227v10.7c0,2.8,1.6,4.7,4.6,4.7s4.6-1.9,4.6-4.7V189.5h3.2v10.8c0,4.5-2.5,7.4-7.7,7.4C226.3,207.7,223.8,204.7,223.8,200.3Z"></path><path class="c" d="M253.7,207.4l-1.3-3.4h-8.2l-1.3,3.4h-3.6l7-17.9h3.9l7,17.9Zm-5.4-14.7-3.2,8.5h6.4Z"></path><path class="c" d="M258.1,207.4V189.5h3.1v15.1h7.9v2.8Z"></path><path class="d" d="M79.9,241.3V217h7.4v24.3Z"></path><path class="d" d="M107.5,241.3l-9-12.3v12.3H91.1V217h7.6l8.5,11.5V217h7.4v24.3Z"></path><path class="d" d="M118.5,241.3V217h10.9c7.7,0,13.3,4.4,13.3,12.1s-5.7,12.2-13.3,12.2Zm16.7-12.1c0-3.3-1.9-5.7-5.8-5.7h-3.5V235h3.5A5.7342,5.7342,0,0,0,135.2,229.2Z"></path><path class="d" d="M145.3,231.3V217h7.5v14.1c0,2.3,1.5,4.2,4.6,4.2,3,0,4.5-1.9,4.5-4.2V217h7.5v14.3c0,6-3.8,10.5-12,10.5S145.3,237.4,145.3,231.3Z"></path><path class="d" d="M171.4,237.9l3.8-5.5a11.5546,11.5546,0,0,0,7.8,3.1c1.4,0,2.7-.4,2.7-1.3,0-2.3-13.6,0-13.6-9.5,0-4.1,3.4-8.1,10.1-8.1a15.7856,15.7856,0,0,1,10.3,3.4l-3.9,5.2a12.1362,12.1362,0,0,0-7.1-2.4c-1.5,0-1.9.5-1.9,1.1,0,2.3,13.5.3,13.5,9.4,0,5.4-4,8.5-10.5,8.5A16.07,16.07,0,0,1,171.4,237.9Z"></path><path class="d" d="M200.1,241.3V223.4h-6.5V217H214v6.4h-6.5v17.9Z"></path><path class="d" d="M230,241.3l-3.4-7.7h-2.7v7.7h-7.4V217h13c5.7,0,8.7,3.8,8.7,8.3a7.854,7.854,0,0,1-4.4,7.4l4.4,8.6Zm.8-16c0-1.3-1.2-1.9-2.4-1.9h-4.5v3.8h4.5C229.7,227.3,230.8,226.7,230.8,225.3Z"></path><path class="d" d="M247.1,241.3v-9.7L238,217h8.3l4.5,8.2,4.4-8.2h8.3l-9,14.6v9.7Z"></path><path class="d" d="M100.7,269.3l3.8-5.5a11.5546,11.5546,0,0,0,7.8,3.1c1.4,0,2.7-.4,2.7-1.3,0-2.3-13.6,0-13.6-9.5,0-4.1,3.4-8.1,10.1-8.1a15.7856,15.7856,0,0,1,10.3,3.4l-3.9,5.2a12.1362,12.1362,0,0,0-7.1-2.4c-1.5,0-1.9.5-1.9,1.1,0,2.3,13.5.3,13.5,9.4,0,5.4-4,8.5-10.5,8.5A16.07,16.07,0,0,1,100.7,269.3Z"></path><path class="d" d="M124.9,262.8V248.5h7.5v14.1c0,2.3,1.5,4.2,4.6,4.2,3,0,4.5-1.9,4.5-4.2V248.5H149v14.3c0,6-3.8,10.5-12,10.5S124.9,268.8,124.9,262.8Z"></path><path class="d" d="M174.3,272.7V258.1l-5.4,14.6h-3.3l-5.4-14.6v14.6h-7.4V248.4H163l4.3,11.7,4.3-11.7h10.2v24.3Z"></path><path class="d" d="M207.1,272.7V258.1l-5.4,14.6h-3.3L193,258.1v14.6h-7.4V248.4h10.2l4.3,11.7,4.3-11.7h10.2v24.3Z"></path><path class="d" d="M218.4,272.7V248.4h7.4v24.3Z"></path><path class="d" d="M234.9,272.7V254.8h-6.5v-6.4h20.4v6.4h-6.5v17.9Z"></path><path class="c" d="M141.6,293.9a2.5,2.5,0,1,1,2.5-2.5A2.4757,2.4757,0,0,1,141.6,293.9Z"></path><path class="c" d="M152.2,296.7v-2c5.7-4.3,7.9-6.2,7.9-8.3a2.32,2.32,0,0,0-2.6-2.2,5.0964,5.0964,0,0,0-3.9,1.7l-1.5-1.7a6.765,6.765,0,0,1,5.4-2.3c2.8,0,5.3,1.6,5.3,4.5,0,2.7-2.5,5.1-6.4,8h6.5v2.2H152.2Z"></path><path class="c" d="M165,289.4c0-3.7,1.7-7.5,5.8-7.5s5.8,3.8,5.8,7.5-1.7,7.5-5.8,7.5C166.8,297,165,293.1,165,289.4Zm9.1,0c0-2.8-.9-5.2-3.2-5.2-2.4,0-3.2,2.5-3.2,5.2,0,2.8.9,5.3,3.2,5.3S174.1,292.2,174.1,289.4Z"></path><path class="c" d="M178.7,296.7v-2c5.7-4.3,7.9-6.2,7.9-8.3a2.32,2.32,0,0,0-2.6-2.2,5.0964,5.0964,0,0,0-3.9,1.7l-1.5-1.7a6.765,6.765,0,0,1,5.4-2.3c2.8,0,5.3,1.6,5.3,4.5,0,2.7-2.5,5.1-6.4,8h6.5v2.2H178.7Z"></path><path class="c" d="M194.8,296.7V285.5l-2.4,2.5-1.5-1.6,4.2-4.2h2.2v14.6h-2.5Z"></path><path class="c" d="M208.4,293.9a2.5,2.5,0,1,1,2.5-2.5A2.4757,2.4757,0,0,1,208.4,293.9Z"></path><g class="e"><rect class="f" x="104.2" y="79.5" width="141.5" height="99.4"></rect></g><path class="g" d="M115.3,78.3l-4,6.9-4,6.9c3.6,3,9.4,6.5,8.5,11.2l-.7,2.5c-.2.9-.5,1.8-.7,2.7-1.5,4.6-8.3,4.7-12.9,5.5v16c4.6.8,11.4.9,12.9,5.5l.6,2.6.8,2.6c.9,4.7-4.9,8.2-8.5,11.2l4,6.9,3.9,6.8a126.6318,126.6318,0,0,1,24.2-9.3,49.4,49.4,0,1,1,71,0,114.6452,114.6452,0,0,1,24.2,9.3l3.9-6.8,4-6.9c-3.6-3-9.5-6.5-8.4-11.3.3-.9.5-1.8.8-2.7l.6-2.4c1.5-4.6,8.3-4.7,12.9-5.5V114c-4.6-.8-11.4-.9-12.9-5.5-.2-.9-.4-1.8-.7-2.8h0l-.7-2.5c-.8-4.7,4.9-8.1,8.5-11.1l-4-6.9-4-6.9c-4.4,1.6-10.3,4.9-13.9,1.7l-1.6-1.7c-.7-.7-1.5-1.4-2.2-2.1-3.1-3.6.1-9.5,1.7-13.9l-6.9-4-6.9-4c-3.1,3.7-6.7,9.7-11.6,8.4l-1.8-.5-2.6-.6c-5-1.3-5.1-8.3-5.9-13.1h-16c-.8,4.6-.9,11.4-5.5,12.9l-2.5.6-2.6.8c-4.8,1-8.3-4.8-11.3-8.4l-6.9,4-6.9,4c1.6,4.5,5.1,10.6,1.4,14.2L131,78.1l-1.6,1.7c-3.4,3.5-9.6.1-14.1-1.5"></path><g class="h"><rect class="i" x="101.5" y="48.4" width="147" height="117.1"></rect></g><g class="j"><rect class="k" x="117.6" y="64.5" width="114.8" height="94.3"></rect></g><path class="i" d="M130.1,159.1a58.3,58.3,0,1,1,89.8,0,14.58,14.58,0,0,1-1.9-.7,56.4,56.4,0,1,0-86,0,14.58,14.58,0,0,1-1.9.7"></path><g class="l"><rect class="i" x="116.7" y="63.6" width="116.7" height="95.6"></rect></g><g class="m"><rect class="n" x="104.2" y="139.6" width="141.5" height="39.3"></rect></g><g class="o"><rect class="p" x="104.2" y="160.9" width="141.5" height="18"></rect></g></svg> 